Simulation
nRows=31
nColumns=15
endheader
time  TH_x TH_y TH_z SC_y  SC_z  SC_x  AC_y  AC_z  AC_x  GH_y  GH_z  GH_yy  EL_x  PS_y
1.9499999999999993  0.000000  0.000000  0.000000  -29.522300703251684  9.297139620501925  24.53279587271697  62.51014001694642  11.062059068192333  -0.34247578142124313  48.147661450935765  59.38645464021576  -44.34138453887657  22.3542861947585  0.000000
1.9889999999999992  0.000000  0.000000  0.000000  -29.28606529548584  8.981537510141692  24.073976560459496  62.29932279426268  10.81700291937259  -1.0794496638234028  48.58830591416598  58.48769783009671  -43.88437612480141  22.567444657825305  0.000000
2.027999999999999  0.000000  0.000000  0.000000  -29.004110319410977  8.614637181713727  23.569460239881025  62.07814811075219  10.53801251009348  -1.8805345274578218  49.07078967587103  57.48579306322655  -43.47263216691085  22.772440842501304  0.000000
2.0669999999999993  0.000000  0.000000  0.000000  -28.68072196673519  8.20040056002648  23.02250795732434  61.84989543627012  10.22801733661691  -2.7286816809074397  49.59211970715317  56.39432141319115  -43.10918552403764  22.955138992893843  0.000000
2.1059999999999994  0.000000  0.000000  0.000000  -28.323385765330602  7.744362728178391  22.43554471224924  61.61333949030455  9.892780074038239  -3.608519577682543  50.13345364048178  55.22844913290253  -42.754298118770066  23.103727804053083  0.000000
2.144999999999999  0.000000  0.000000  0.000000  -27.940443264406575  7.252285291263884  21.807150094099512  61.3647218099767  9.541175064768698  -4.505707023598659  50.66541721676374  54.00443538973386  -42.34680306184872  23.210691067172846  0.000000
2.1839999999999993  0.000000  0.000000  0.000000  -27.541573690472706  6.729860261256527  21.130589352035457  61.10074220427928  9.183909967363139  -5.404933925978952  51.15793404625034  52.738970844906156  -41.83488028706091  23.276081662197043  0.000000
2.2229999999999994  0.000000  0.000000  0.000000  -27.14078031123592  6.181825234373694  20.392786908003167  60.82263901427564  8.83130873458523  -6.287582671949386  51.58636524030125  51.44959190264195  -41.19487880517212  23.30998311954958  0.000000
2.261999999999999  0.000000  0.000000  0.000000  -26.75879092774645  5.613487254766722  19.57358727154238  60.53767918353916  8.490760807586783  -7.12724620888865  51.929317604782085  50.15324903349264  -40.4252119459102  23.331410198147303  0.000000
2.3009999999999993  0.000000  0.000000  0.000000  -26.421392613596996  5.033513507160655  18.647031758832462  60.25784510857947  8.16553700264348  -7.886860549051424  52.15880996532613  48.86256582259342  -39.52074789230172  23.36244107027888  0.000000
2.339999999999999  0.000000  0.000000  0.000000  -26.15139603720395  4.454441932942665  17.586639638979506  59.99394215490457  7.858640734407925  -8.523348436615263  52.233683979979986  47.579315448974505  -38.4490512064235  23.422316967291493  0.000000
2.378999999999999  0.000000  0.000000  0.000000  -25.960544400167556  3.8903381863157622  16.37351680307735  59.74925567437501  7.578475861303214  -8.999633825500448  52.10620284717392  46.29137559237651  -37.14969751853254  23.526549855446714  0.000000
2.4179999999999993  0.000000  0.000000  0.000000  -25.84854326152293  3.3526678452618732  15.002644857530022  59.517236837949575  7.339139227749285  -9.294602517398127  51.73566213642416  44.97758502587993  -35.55500720509386  23.689712091580382  0.000000
2.456999999999999  0.000000  0.000000  0.000000  -25.806963741919823  2.8477095972135564  13.484461261876769  59.28435218594064  7.156349962792719  -9.407714825690892  51.09728086797083  43.61819559411834  -33.61537931525544  23.926402253210448  0.000000
2.495999999999999  0.000000  0.000000  0.000000  -25.825321069609785  2.3775116820296  11.842046589406456  59.03716381585561  7.041641342636657  -9.354630532672868  50.17990708430959  42.20247615594813  -31.312717512190957  24.2481306284133  0.000000
2.5349999999999993  0.000000  0.000000  0.000000  -25.89514601059711  1.9417722642070656  10.106414248876229  58.7674088896299  6.998238963339141  -9.159826891893251  48.98189295255074  40.731949453805406  -28.662884235908724  24.658480939211103  0.000000
2.573999999999999  0.000000  0.000000  0.000000  -26.009704652896882  1.538921965991534  8.31306552800047  58.473108288922305  7.021649143798059  -8.850836410472217  47.51171158780783  39.21721477527806  -25.713093712062793  25.147996647992674  0.000000
2.612999999999999  0.000000  0.000000  0.000000  -26.162138380966354  1.1670045496615877  6.498900154432684  58.15762997774041  7.101659893755523  -8.455051937960057  45.79084785602358  37.6731815818029  -22.537164989422006  25.69042484371878  0.000000
2.6519999999999992  0.000000  0.000000  0.000000  -26.345313595114348  0.8242450214103608  4.700485903011193  57.82672497891598  7.225214387090665  -7.999137490746598  43.858315011711454  36.113402488871415  -19.229561108638908  26.24484473177884  0.000000
2.690999999999999  0.000000  0.000000  0.000000  -26.5527637342071  0.5099284400601173  2.953217803498505  57.48477828308161  7.3796691533412115  -7.510315144524482  41.77186298509851  34.54551282724845  -15.894340726710475  26.764176058598558  0.000000
2.729999999999999  0.000000  0.000000  0.000000  -26.779530740849527  0.2253234041797206  1.2915063673887377  57.13146591732909  7.555144652954627  -7.01760062855376  39.60486413318536  32.968852720893544  -12.631410544911594  27.205877217702295  0.000000
2.768999999999999  0.000000  0.000000  0.000000  -27.022398913250903  -0.026220227348949122  -0.2513021528492327  56.76123968671933  7.745123741046138  -6.552036487710591  37.439812060263755  31.375807874734512  -9.526141930495195  27.539556401822942  0.000000
2.807999999999999  0.000000  0.000000  0.000000  -27.2788426421302  -0.24015238065617603  -1.6435977737472631  56.36529857675241  7.944826132601143  -6.144858781554059  35.360089568830155  29.755635196723343  -6.644773702155965  27.749170516511832  0.000000
2.846999999999999  0.000000  0.000000  0.000000  -27.54527765282699  -0.4121542247415134  -2.856713805922805  55.935900206552155  8.148810646963264  -5.824471424655635  33.44136906035652  28.098921771417213  -4.034933993266958  27.831368550263047  0.000000
2.885999999999999  0.000000  0.000000  0.000000  -27.81481796735971  -0.5399845160424754  -3.866624591230054  55.470372779872854  8.348685137331607  -5.613095196035235  31.74087617363555  26.401838330915176  -1.7244847977700901  27.792707922967494  0.000000
2.924999999999999  0.000000  0.000000  0.000000  -28.076585196386734  -0.6248933750258618  -4.6552016308962125  54.9740829386179  8.532508224803578  -5.5247171879451935  30.284859401739997  24.668545890869346  0.28358530079550437  27.648910212553258  0.000000
2.963999999999999  0.000000  0.000000  0.000000  -28.31832616720798  -0.6715242596077489  -5.212225777060349  54.46174349141409  8.685298013036299  -5.56402982172295  29.057533666017935  22.913186613646115  2.0168316945868865  27.425766431442398  0.000000
3.002999999999999  0.000000  0.000000  0.000000  -28.529284367369723  -0.6876616068390021  -5.537360545006521  53.95711898380251  8.791772244959335  -5.725446410896111  27.997733064829333  21.15881768357938  3.5326650873578562  27.1578241381291  0.000000
3.041999999999999  0.000000  0.000000  0.000000  -28.70291000445059  -0.684082720675399  -5.642063170354439  53.49071657663453  8.838832511512285  -5.99284870532752  27.01176658936401  19.435877043148988  4.903711414598777  26.880437515008964  0.000000
3.080999999999999  0.000000  0.000000  0.000000  -28.838903065706937  -0.6720353700443611  -5.548261663745392  53.09483932407508  8.816409114115926  -6.341302707434294  26.00803669453966  17.778333380230144  6.185558113396237  26.61871738576361  0.000000
3.1199999999999988  0.000000  0.000000  0.000000  -28.94374641297871  -0.658619060055525  -5.284720814885916  52.79438225478903  8.718095142515663  -6.740990726907374  24.94464045701867  16.218538132626378  7.377314732247438  26.382725235271856  0.000000
